<svg width="209" height="64" viewBox="0 0 209 64" fill="none" xmlns="http://www.w3.org/2000/svg">
<path d="M83.5794 36.2202V35.0873C84.4901 35.0098 85.052 34.8549 85.2651 34.6225C85.4976 34.3708 85.4588 33.906 85.1488 33.2282L83.5213 29.8296C83.1144 28.9388 82.6978 28.2513 82.2715 27.7672C81.8646 27.2637 81.3996 26.9151 80.8765 26.7215C80.3533 26.5084 79.7043 26.4019 78.9292 26.4019H77.011V25.2981H78.9583C79.4814 25.2981 79.9465 25.24 80.3533 25.1238C80.7602 25.0076 81.1381 24.814 81.4868 24.5429C81.855 24.2524 82.2328 23.8748 82.6203 23.41L84.5676 21.1152C85.2457 20.3212 85.6526 19.6047 85.7882 18.9656C85.9239 18.3266 85.7979 17.8134 85.4104 17.4261C85.0229 17.0388 84.3835 16.8161 83.4922 16.758V15.6542C84.2479 15.6735 84.9841 15.6929 85.701 15.7123C86.4179 15.7316 87.1639 15.7413 87.9389 15.7413C88.5783 15.7413 89.1984 15.7316 89.799 15.7123C90.419 15.6929 91.1359 15.6735 91.9497 15.6542V16.758C91.2328 16.9323 90.6031 17.1453 90.0606 17.397C89.5374 17.6294 89.0434 17.949 88.5783 18.3556C88.1133 18.7623 87.5999 19.2852 87.038 19.9242L82.5912 25.211V24.3105C83.4244 24.4654 84.1413 24.7172 84.7419 25.0657C85.3426 25.4143 85.8851 25.8984 86.3695 26.5181C86.8733 27.1378 87.348 27.9512 87.7936 28.9582L89.5374 32.5311C89.8087 33.0733 90.0799 33.5187 90.3512 33.8673C90.6225 34.1965 90.9422 34.4579 91.3103 34.6516C91.6978 34.8259 92.1628 34.9711 92.7054 35.0873V36.2202C92.0078 36.2008 91.3975 36.1911 90.8744 36.1911C90.3512 36.1718 89.8765 36.1621 89.4502 36.1621C89.024 36.1427 88.5977 36.133 88.1714 36.133C87.3964 36.133 86.6408 36.1427 85.9045 36.1621C85.1682 36.1621 84.3932 36.1815 83.5794 36.2202ZM70.588 36.2202V35.0873C71.4793 35.0486 72.138 34.9711 72.5643 34.8549C73.01 34.7194 73.3006 34.487 73.4362 34.1578C73.5912 33.8092 73.6687 33.2863 73.6687 32.5892V19.2852C73.6687 18.588 73.5912 18.0748 73.4362 17.7456C73.3006 17.397 73.01 17.155 72.5643 17.0194C72.138 16.8839 71.4793 16.8064 70.588 16.787V15.6542C71.0918 15.6735 71.7893 15.6929 72.6806 15.7123C73.5912 15.7316 74.6763 15.7413 75.9357 15.7413C77.0595 15.7413 78.0476 15.7316 78.9002 15.7123C79.7527 15.6929 80.4212 15.6735 80.9055 15.6542V16.787C80.0918 16.8064 79.4814 16.8839 79.0745 17.0194C78.687 17.155 78.4255 17.397 78.2898 17.7456C78.1542 18.0748 78.0864 18.588 78.0864 19.2852V32.5892C78.0864 33.267 78.1542 33.7801 78.2898 34.1287C78.4255 34.4773 78.687 34.7194 79.0745 34.8549C79.4814 34.9711 80.0821 35.0486 80.8765 35.0873V36.2202C80.3921 36.1815 79.7236 36.1621 78.8711 36.1621C78.0379 36.1427 77.0595 36.133 75.9357 36.133C74.6763 36.133 73.5912 36.1427 72.6806 36.1621C71.7893 36.1621 71.0918 36.1815 70.588 36.2202Z" fill="white"/>
<path d="M93.2638 36.2202V35.0873C94.3101 35.0679 95.027 34.913 95.4145 34.6225C95.8214 34.3127 96.0249 33.7705 96.0249 32.9958V24.8914C96.0249 23.9813 95.8117 23.3422 95.3855 22.9743C94.9786 22.587 94.2714 22.3739 93.2638 22.3352V21.2023C93.8064 21.2217 94.2617 21.2411 94.6298 21.2604C95.0173 21.2798 95.4339 21.2895 95.8796 21.2895C97.4684 21.2895 98.8537 21.1539 100.036 20.8828V32.7635C100.036 33.6155 100.297 34.2159 100.82 34.5644C101.363 34.8937 102.303 35.0679 103.64 35.0873V36.2202C103.271 36.2008 102.777 36.1911 102.157 36.1911C101.557 36.1718 100.898 36.1524 100.181 36.133C99.4834 36.1137 98.7956 36.104 98.1174 36.104C97.1293 36.104 96.1799 36.1234 95.2692 36.1621C94.3779 36.1815 93.7095 36.2008 93.2638 36.2202ZM104.918 26.6053C104.434 26.6053 104.046 26.4697 103.756 26.1986C103.465 25.9275 103.32 25.5789 103.32 25.1529C103.32 24.8624 103.368 24.6106 103.465 24.3976C103.562 24.1652 103.659 23.9522 103.756 23.7586C103.853 23.5455 103.901 23.3422 103.901 23.1486C103.901 22.7225 103.63 22.5095 103.087 22.5095C102.68 22.5095 102.264 22.6063 101.838 22.8C101.431 22.9936 101.053 23.2647 100.704 23.6133C100.375 23.9425 100.123 24.3298 99.9485 24.7752L99.8903 23.5552C100.355 22.6838 100.985 22.006 101.779 21.5219C102.574 21.0377 103.407 20.7957 104.279 20.7957C105.19 20.7957 105.906 21.0668 106.43 21.609C106.972 22.1319 107.243 22.8581 107.243 23.7876C107.243 24.6397 107.03 25.3272 106.604 25.85C106.178 26.3535 105.616 26.6053 104.918 26.6053Z" fill="white"/>
<path d="M108.064 36.2202V35.0873C109.091 35.0679 109.807 34.913 110.214 34.6225C110.621 34.3321 110.825 33.7898 110.825 32.9958V24.8914C110.825 24.02 110.621 23.3906 110.214 23.0033C109.827 22.5966 109.11 22.3739 108.064 22.3352V21.2023C108.451 21.2217 108.848 21.2411 109.255 21.2604C109.662 21.2798 110.069 21.2895 110.476 21.2895C111.309 21.2895 112.084 21.2604 112.801 21.2023C113.537 21.1249 114.215 21.0184 114.835 20.8828V32.9958C114.835 33.7898 115.039 34.3321 115.446 34.6225C115.853 34.913 116.57 35.0679 117.597 35.0873V36.2202C117.306 36.2008 116.899 36.1911 116.376 36.1911C115.872 36.1718 115.31 36.1524 114.69 36.133C114.09 36.1137 113.489 36.104 112.888 36.104C111.978 36.104 111.057 36.1234 110.127 36.1621C109.217 36.1815 108.529 36.2008 108.064 36.2202ZM112.714 18.2104C112.074 18.2104 111.503 18.007 110.999 17.6004C110.515 17.1937 110.273 16.6418 110.273 15.9446C110.273 15.2281 110.515 14.6665 110.999 14.2598C111.503 13.8532 112.074 13.6498 112.714 13.6498C113.353 13.6498 113.915 13.8532 114.4 14.2598C114.903 14.6665 115.155 15.2184 115.155 15.9156C115.155 16.6321 114.903 17.1937 114.4 17.6004C113.915 18.007 113.353 18.2104 112.714 18.2104Z" fill="white"/>
<path d="M125.834 36.6269C125.001 36.6269 124.303 36.5397 123.742 36.3654C123.18 36.1911 122.715 36.0168 122.347 35.8426C121.978 35.6683 121.649 35.5811 121.358 35.5811C120.893 35.5811 120.554 35.8813 120.341 36.4816H119.208C119.266 35.9587 119.305 35.4262 119.324 34.884C119.343 34.3224 119.353 33.7027 119.353 33.0249C119.353 32.3277 119.353 31.5338 119.353 30.643H120.457C120.787 32.2309 121.368 33.4316 122.201 34.2449C123.054 35.0583 124.139 35.4649 125.456 35.4649C126.328 35.4649 127.006 35.281 127.491 34.913C127.975 34.5257 128.217 33.9932 128.217 33.3154C128.217 32.657 127.946 32.1147 127.404 31.6887C126.88 31.2626 125.941 30.8463 124.584 30.4396C122.841 29.9168 121.562 29.239 120.748 28.4063C119.934 27.5542 119.527 26.5084 119.527 25.2691C119.527 23.9135 119.973 22.829 120.864 22.0157C121.775 21.2023 122.986 20.7957 124.497 20.7957C125.272 20.7957 125.931 20.8828 126.474 21.0571C127.016 21.212 127.471 21.3863 127.84 21.58C128.227 21.7542 128.556 21.8414 128.828 21.8414C129.021 21.8414 129.186 21.7736 129.322 21.6381C129.457 21.4831 129.574 21.2604 129.671 20.97H130.804C130.765 21.3766 130.736 21.8123 130.717 22.2771C130.697 22.7225 130.678 23.2454 130.659 23.8457C130.659 24.446 130.668 25.1916 130.688 26.0824H129.554C129.264 24.7656 128.711 23.7489 127.898 23.0324C127.103 22.3158 126.154 21.9576 125.049 21.9576C124.274 21.9576 123.664 22.1319 123.218 22.4805C122.792 22.829 122.579 23.3325 122.579 23.9909C122.579 24.6687 122.87 25.2303 123.451 25.6757C124.032 26.1211 125.04 26.5569 126.474 26.9829C128.159 27.4477 129.38 28.0674 130.136 28.842C130.911 29.6166 131.298 30.6333 131.298 31.892C131.298 33.3832 130.814 34.5451 129.845 35.3778C128.876 36.2105 127.539 36.6269 125.834 36.6269Z" fill="white"/>
<path d="M149.854 36.6269C147.878 36.6269 146.172 36.317 144.739 35.6973C143.305 35.0583 142.191 34.1481 141.396 32.9668C140.621 31.7855 140.234 30.4009 140.234 28.8129C140.234 27.3218 140.554 25.9759 141.193 24.7752C141.832 23.5746 142.695 22.6257 143.78 21.9285C144.865 21.2314 146.066 20.8828 147.383 20.8828C148.449 20.8828 149.292 21.1055 149.912 21.5509C150.532 21.9963 150.842 22.6063 150.842 23.3809C150.842 24.0006 150.59 24.6494 150.086 25.3272C149.583 25.9856 148.779 26.7408 147.674 27.5929L147.296 27.5058C148.614 26.828 149.805 26.1502 150.871 25.4724C151.937 24.7752 152.847 24.1071 153.603 23.4681C154.359 22.8097 154.94 22.1997 155.347 21.6381C155.754 21.0765 155.957 20.573 155.957 20.1276C155.957 19.7209 155.841 19.3626 155.608 19.0528C155.376 18.7236 155.143 18.404 154.911 18.0942C154.698 17.765 154.591 17.4067 154.591 17.0194C154.591 16.574 154.746 16.2158 155.056 15.9446C155.366 15.6735 155.763 15.538 156.248 15.538C156.887 15.538 157.401 15.7607 157.788 16.2061C158.195 16.6515 158.399 17.2324 158.399 17.949C158.399 18.8204 158.079 19.7499 157.439 20.7376C156.819 21.7252 155.928 22.7322 154.766 23.7586C153.603 24.7656 152.227 25.7532 150.639 26.7215C149.069 27.6897 147.335 28.5805 145.436 29.3939L145 28.3482C146.124 27.864 146.996 27.2153 147.616 26.4019C148.255 25.5886 148.575 24.7075 148.575 23.7586C148.575 23.1582 148.449 22.7128 148.197 22.4224C147.945 22.1125 147.568 21.9576 147.064 21.9576C146.347 21.9576 145.678 22.2481 145.058 22.829C144.438 23.41 143.944 24.1749 143.576 25.1238C143.208 26.0727 143.024 27.1088 143.024 28.232C143.024 30.2847 143.721 31.9114 145.117 33.112C146.531 34.2933 148.459 34.884 150.9 34.884C153.516 34.884 155.715 34.1674 157.498 32.7344C159.3 31.3014 160.685 29.1615 161.654 26.3148L162.7 26.5181C161.596 29.8683 159.968 32.3955 157.817 34.0997C155.667 35.7845 153.012 36.6269 149.854 36.6269ZM155.376 31.6596C154.814 31.6596 154.359 31.4466 154.01 31.0206C153.681 30.5945 153.516 30.0136 153.516 29.2777C153.516 28.5612 153.661 27.9124 153.952 27.3315C154.262 26.7311 154.688 26.2083 155.231 25.7629C155.793 25.3175 156.442 24.9786 157.178 24.7462C157.934 24.4944 158.757 24.3686 159.648 24.3686C160.404 24.3686 161.121 24.4654 161.799 24.6591C162.477 24.8333 163.117 25.0464 163.717 25.2981C164.318 25.5499 164.87 25.7726 165.374 25.9662C165.878 26.1599 166.343 26.2567 166.769 26.2567C167.253 26.2567 167.621 26.1405 167.873 25.9081C168.125 25.6564 168.319 25.3562 168.455 25.0076C168.61 24.6591 168.745 24.3105 168.861 23.9619C168.997 23.6133 169.171 23.3228 169.385 23.0905C169.598 22.8387 169.927 22.7128 170.373 22.7128C170.818 22.7128 171.167 22.8581 171.419 23.1486C171.69 23.4197 171.826 23.807 171.826 24.3105C171.826 25.2206 171.38 25.9565 170.489 26.5181C169.617 27.0604 168.445 27.3315 166.972 27.3315C166.314 27.3315 165.674 27.2831 165.054 27.1862C164.434 27.0894 163.795 26.9829 163.136 26.8667C162.497 26.7505 161.818 26.644 161.101 26.5472C160.385 26.4504 159.619 26.4019 158.805 26.4019C157.74 26.4019 156.926 26.4988 156.364 26.6924C155.802 26.8861 155.521 27.1669 155.521 27.5348C155.521 27.7478 155.589 27.9609 155.725 28.1739C155.88 28.3675 156.054 28.5709 156.248 28.7839C156.442 28.9969 156.606 29.2293 156.742 29.481C156.897 29.7134 156.974 29.9748 156.974 30.2653C156.974 30.6526 156.829 30.9818 156.538 31.253C156.248 31.5241 155.86 31.6596 155.376 31.6596Z" fill="#017FC1"/>
<path d="M180.311 36.2202V35.0873C181.221 35.0486 181.89 34.9711 182.316 34.8549C182.762 34.7194 183.052 34.4773 183.188 34.1287C183.324 33.7801 183.391 33.267 183.391 32.5892V19.2852C183.391 18.5686 183.314 18.0458 183.159 17.7166C183.023 17.368 182.733 17.1356 182.287 17.0194C181.861 16.8839 181.202 16.8064 180.311 16.787V15.6542C181.008 15.6735 181.812 15.6929 182.723 15.7123C183.653 15.7316 184.641 15.7413 185.687 15.7413C187.063 15.7413 188.255 15.7316 189.262 15.7123C190.27 15.6929 191.084 15.6735 191.704 15.6542V16.787C190.56 16.8064 189.708 16.8839 189.146 17.0194C188.604 17.1356 188.245 17.368 188.071 17.7166C187.896 18.0651 187.809 18.588 187.809 19.2852V32.9087C187.809 33.4897 187.848 33.9351 187.925 34.2449C188.022 34.5354 188.216 34.7387 188.507 34.8549C188.817 34.9518 189.282 35.0002 189.902 35.0002H190.686C191.52 35.0002 192.266 34.884 192.924 34.6516C193.602 34.3998 194.193 34.0125 194.697 33.4897C195.22 32.9668 195.685 32.3084 196.092 31.5144C196.518 30.7011 196.906 29.7328 197.255 28.6096H198.446C198.291 29.9264 198.175 31.2239 198.098 32.502C198.039 33.7608 198.02 35.0002 198.039 36.2202C197.206 36.1815 196.199 36.1621 195.017 36.1621C193.835 36.1427 192.401 36.133 190.715 36.133C188.41 36.133 186.375 36.1427 184.612 36.1621C182.849 36.1621 181.415 36.1815 180.311 36.2202Z" fill="white"/>
<path d="M199.467 36.2202V35.0873C200.494 35.0679 201.211 34.913 201.618 34.6225C202.025 34.3321 202.228 33.7898 202.228 32.9958V24.8914C202.228 24.02 202.025 23.3906 201.618 23.0033C201.23 22.5966 200.513 22.3739 199.467 22.3352V21.2023C199.855 21.2217 200.252 21.2411 200.659 21.2604C201.066 21.2798 201.473 21.2895 201.879 21.2895C202.713 21.2895 203.488 21.2604 204.205 21.2023C204.941 21.1249 205.619 21.0184 206.239 20.8828V32.9958C206.239 33.7898 206.442 34.3321 206.849 34.6225C207.256 34.913 207.973 35.0679 209 35.0873V36.2202C208.709 36.2008 208.302 36.1911 207.779 36.1911C207.276 36.1718 206.714 36.1524 206.094 36.133C205.493 36.1137 204.892 36.104 204.292 36.104C203.381 36.104 202.461 36.1234 201.531 36.1621C200.62 36.1815 199.932 36.2008 199.467 36.2202ZM204.117 18.2104C203.478 18.2104 202.906 18.007 202.403 17.6004C201.918 17.1937 201.676 16.6418 201.676 15.9446C201.676 15.2281 201.918 14.6665 202.403 14.2598C202.906 13.8532 203.478 13.6498 204.117 13.6498C204.757 13.6498 205.319 13.8532 205.803 14.2598C206.307 14.6665 206.559 15.2184 206.559 15.9156C206.559 16.6321 206.307 17.1937 205.803 17.6004C205.319 18.007 204.757 18.2104 204.117 18.2104Z" fill="white"/>
<path d="M74.2852 51.1654C73.7657 51.1654 73.3138 51.0464 72.9295 50.8084C72.5453 50.565 72.2449 50.2242 72.0284 49.786C71.8174 49.3479 71.7118 48.8367 71.7118 48.2526C71.7118 47.6522 71.8228 47.1221 72.0447 46.6623C72.272 46.2025 72.5832 45.8428 72.9782 45.5832C73.3733 45.3235 73.8279 45.1937 74.3421 45.1937C74.5856 45.1937 74.7994 45.2208 74.9834 45.2748C75.1674 45.3235 75.327 45.3857 75.4623 45.4615C75.5976 45.5318 75.714 45.594 75.8114 45.6481C75.9088 45.6968 75.9981 45.7211 76.0793 45.7211C76.1605 45.7211 76.2227 45.6832 76.266 45.6075C76.3093 45.5318 76.3418 45.4074 76.3634 45.2343H76.6882C76.6828 45.3803 76.6773 45.5426 76.6719 45.7211C76.6665 45.8996 76.6611 46.1187 76.6557 46.3783C76.6557 46.6379 76.6557 46.9625 76.6557 47.3519H76.331C76.266 46.9733 76.1443 46.6488 75.9657 46.3783C75.7925 46.1024 75.576 45.8888 75.3162 45.7373C75.0564 45.5859 74.7642 45.5101 74.4395 45.5101C73.8604 45.5101 73.4058 45.7454 73.0756 46.216C72.7509 46.6866 72.5886 47.3357 72.5886 48.1633C72.5886 48.9963 72.7536 49.6535 73.0838 50.1349C73.4139 50.6109 73.8658 50.8489 74.4395 50.8489C74.7696 50.8489 75.0646 50.7732 75.3243 50.6218C75.5895 50.4649 75.8087 50.2485 75.9819 49.9727C76.1605 49.6968 76.2768 49.375 76.331 49.0071H76.6557C76.6557 49.3804 76.6557 49.6968 76.6557 49.9564C76.6611 50.2161 76.6665 50.4378 76.6719 50.6218C76.6773 50.8057 76.6828 50.9733 76.6882 51.1248H76.3634C76.3418 50.9463 76.3093 50.8219 76.266 50.7516C76.2227 50.6813 76.1632 50.6461 76.0874 50.6461C76.0008 50.6461 75.9061 50.6731 75.8033 50.7272C75.7005 50.7759 75.5787 50.8354 75.438 50.9057C75.3027 50.9761 75.1403 51.0355 74.9509 51.0842C74.7615 51.1383 74.5396 51.1654 74.2852 51.1654Z" fill="white"/>
<path d="M78.0013 51.0518V50.7353C78.3422 50.7299 78.5777 50.6867 78.7075 50.6055C78.8428 50.5244 78.9105 50.3729 78.9105 50.1512V45.8103C78.9105 45.5615 78.8428 45.383 78.7075 45.2748C78.5777 45.1667 78.3422 45.1072 78.0013 45.0963V44.7799C78.1095 44.7853 78.2205 44.7907 78.3341 44.7961C78.4532 44.8015 78.5722 44.8043 78.6913 44.8043C78.8807 44.8043 79.0593 44.7961 79.2271 44.7799C79.4003 44.7583 79.5572 44.7285 79.6979 44.6907V50.1512C79.6979 50.3729 79.7656 50.5244 79.9009 50.6055C80.0362 50.6867 80.2716 50.7299 80.6071 50.7353V51.0518C80.526 51.0464 80.4123 51.0437 80.2662 51.0437C80.1255 51.0383 79.9712 51.0328 79.8035 51.0274C79.6357 51.022 79.4706 51.0193 79.3083 51.0193C79.0593 51.0193 78.8104 51.0247 78.5614 51.0355C78.3125 51.041 78.1257 51.0464 78.0013 51.0518Z" fill="white"/>
<path d="M83.4542 51.1654C83.0646 51.1654 82.7236 51.0788 82.4314 50.9057C82.1445 50.7272 81.9226 50.473 81.7657 50.143C81.6088 49.8131 81.5303 49.4236 81.5303 48.9747C81.5303 48.5203 81.6088 48.1282 81.7657 47.7982C81.9226 47.4628 82.1499 47.2059 82.4476 47.0274C82.7453 46.8489 83.0998 46.7597 83.5111 46.7597C83.8629 46.7597 84.1659 46.8273 84.4203 46.9625C84.6801 47.0977 84.8776 47.3114 85.0129 47.6035C85.1536 47.8956 85.2186 48.2769 85.2077 48.7475H82.0498L82.0417 48.4392H84.3959C84.4013 48.1741 84.3716 47.9388 84.3066 47.7333C84.2417 47.5277 84.1389 47.3655 83.9982 47.2465C83.8629 47.1275 83.687 47.068 83.4705 47.068C83.1945 47.068 82.9509 47.1843 82.7399 47.4169C82.5342 47.6494 82.4124 48.0146 82.3745 48.5122L82.3827 48.5365C82.3773 48.5906 82.3745 48.6501 82.3745 48.715C82.3745 48.78 82.3745 48.8476 82.3745 48.9179C82.3745 49.4912 82.4855 49.9348 82.7074 50.2485C82.9293 50.5568 83.2486 50.711 83.6653 50.711C83.9359 50.711 84.1768 50.6461 84.3878 50.5163C84.6043 50.3811 84.7829 50.1728 84.9236 49.8915L85.2077 50.0538C85.067 50.4054 84.8424 50.6785 84.5339 50.8733C84.2309 51.068 83.871 51.1654 83.4542 51.1654Z" fill="white"/>
<path d="M87.7021 51.1654C87.3341 51.1654 87.0418 51.0707 86.8253 50.8814C86.6143 50.6867 86.5087 50.427 86.5087 50.1025C86.5087 49.8483 86.5683 49.6427 86.6873 49.4858C86.8064 49.329 86.9606 49.2046 87.1501 49.1126C87.3449 49.0207 87.5478 48.9449 87.7589 48.8854C87.9754 48.8205 88.1783 48.7637 88.3678 48.715C88.5626 48.6664 88.7195 48.6069 88.8386 48.5365C88.9631 48.4608 89.0253 48.3634 89.0253 48.2444V47.855C89.0253 47.6008 88.9495 47.4087 88.798 47.2789C88.6465 47.1491 88.4219 47.0842 88.1242 47.0842C87.9077 47.0842 87.7264 47.1139 87.5803 47.1734C87.4342 47.2329 87.3611 47.306 87.3611 47.3925C87.3611 47.4466 87.3801 47.5034 87.4179 47.5629C87.4558 47.617 87.491 47.6792 87.5235 47.7495C87.5614 47.8144 87.5803 47.8875 87.5803 47.9686C87.5803 48.0714 87.5397 48.1552 87.4585 48.2201C87.3828 48.285 87.2826 48.3175 87.1582 48.3175C87.012 48.3175 86.893 48.2715 86.801 48.1795C86.709 48.0822 86.663 47.9551 86.663 47.7982C86.663 47.5981 86.7387 47.4196 86.8903 47.2627C87.0418 47.1058 87.2448 46.9841 87.4991 46.8976C87.7589 46.8056 88.0511 46.7597 88.3759 46.7597C88.7114 46.7597 88.9847 46.811 89.1958 46.9138C89.4069 47.0166 89.5611 47.1762 89.6585 47.3925C89.7613 47.6089 89.8128 47.8902 89.8128 48.2363V50.3783C89.8128 50.5082 89.8344 50.6028 89.8777 50.6623C89.921 50.7218 89.9886 50.7516 90.0807 50.7516C90.1727 50.7516 90.2647 50.7299 90.3567 50.6867C90.4487 50.638 90.538 50.5812 90.6246 50.5163L90.7788 50.7759C90.6381 50.9003 90.4893 50.995 90.3323 51.0599C90.1808 51.1302 90.0049 51.1654 89.8046 51.1654C89.2851 51.1654 89.0253 50.9274 89.0253 50.4514C88.8684 50.684 88.6789 50.8625 88.457 50.9869C88.2352 51.1059 87.9835 51.1654 87.7021 51.1654ZM88.0106 50.6704C88.2108 50.6704 88.3975 50.6217 88.5707 50.5244C88.7439 50.427 88.8954 50.2864 89.0253 50.1025V48.6582C88.9712 48.7502 88.8765 48.8259 88.7412 48.8854C88.6113 48.9395 88.4652 48.9963 88.3028 49.0558C88.1404 49.1099 87.9835 49.1748 87.832 49.2505C87.6858 49.3263 87.5641 49.4236 87.4667 49.5426C87.3692 49.6616 87.3205 49.8158 87.3205 50.0051C87.3205 50.2107 87.3801 50.3729 87.4991 50.4919C87.6236 50.6109 87.7941 50.6704 88.0106 50.6704Z" fill="white"/>
<path d="M94.3504 51.0518V50.7353C94.5831 50.7299 94.7427 50.6867 94.8293 50.6055C94.9213 50.519 94.9673 50.3675 94.9673 50.1512V48.2526C94.9673 47.8956 94.897 47.6305 94.7563 47.4574C94.621 47.2789 94.418 47.1897 94.1474 47.1897C93.9201 47.1897 93.709 47.2519 93.5142 47.3763C93.3248 47.4953 93.1597 47.6738 93.019 47.9118L93.0271 47.5548C93.1624 47.306 93.3546 47.1112 93.6035 46.9706C93.8525 46.83 94.1285 46.7597 94.4315 46.7597C94.8537 46.7597 95.1784 46.8922 95.4057 47.1572C95.6384 47.4223 95.7548 47.8036 95.7548 48.3012V50.1512C95.7548 50.3675 95.8197 50.519 95.9496 50.6055C96.0795 50.6867 96.3176 50.7299 96.664 50.7353V51.0518C96.5828 51.0464 96.4692 51.0437 96.323 51.0437C96.1823 51.0383 96.0281 51.0328 95.8603 51.0274C95.6925 51.022 95.5302 51.0193 95.3732 51.0193C95.1676 51.0193 94.9673 51.0247 94.7725 51.0355C94.5831 51.041 94.4424 51.0464 94.3504 51.0518ZM91.3711 51.0518V50.7353C91.712 50.7299 91.9474 50.6867 92.0773 50.6055C92.2126 50.519 92.2803 50.3675 92.2803 50.1512V47.9037C92.2803 47.644 92.2126 47.4628 92.0773 47.3601C91.942 47.2573 91.7066 47.2005 91.3711 47.1897V46.8732C91.4793 46.8787 91.5902 46.8841 91.7039 46.8895C91.8176 46.8949 91.9366 46.8976 92.0611 46.8976C92.2451 46.8976 92.421 46.8895 92.5888 46.8732C92.7565 46.8516 92.9162 46.8219 93.0677 46.784V50.1512C93.0677 50.3675 93.111 50.519 93.1976 50.6055C93.2896 50.6867 93.452 50.7299 93.6847 50.7353V51.0518C93.5602 51.0464 93.406 51.041 93.222 51.0355C93.0434 51.0247 92.8567 51.0193 92.6618 51.0193C92.4399 51.0193 92.2099 51.0247 91.9718 51.0355C91.7337 51.041 91.5334 51.0464 91.3711 51.0518Z" fill="white"/>
<path d="M97.333 51.0518V50.7353C97.6685 50.7299 97.904 50.6867 98.0393 50.6055C98.1746 50.5244 98.2422 50.3729 98.2422 50.1512V47.9037C98.2422 47.6549 98.1746 47.4764 98.0393 47.3682C97.9094 47.26 97.674 47.2005 97.333 47.1897V46.8732C97.4412 46.8787 97.5522 46.8841 97.6658 46.8895C97.7849 46.8949 97.9012 46.8976 98.0149 46.8976C98.2097 46.8976 98.391 46.8895 98.5588 46.8732C98.7266 46.8516 98.8835 46.8219 99.0297 46.784V50.1512C99.0297 50.3729 99.0946 50.5244 99.2245 50.6055C99.3598 50.6867 99.5979 50.7299 99.9389 50.7353V51.0518C99.8577 51.0464 99.744 51.0437 99.5979 51.0437C99.4572 51.0383 99.303 51.0328 99.1352 51.0274C98.9674 51.022 98.7996 51.0193 98.6319 51.0193C98.3883 51.0193 98.1421 51.0247 97.8931 51.0355C97.6442 51.041 97.4575 51.0464 97.333 51.0518ZM98.6075 45.9158C98.456 45.9158 98.3261 45.8644 98.2179 45.7617C98.1096 45.6535 98.0555 45.521 98.0555 45.3641C98.0555 45.2126 98.1096 45.0855 98.2179 44.9828C98.3261 44.8746 98.456 44.8205 98.6075 44.8205C98.759 44.8205 98.8889 44.8746 98.9972 44.9828C99.1054 45.0855 99.1595 45.2126 99.1595 45.3641C99.1595 45.521 99.1054 45.6535 98.9972 45.7617C98.8889 45.8644 98.759 45.9158 98.6075 45.9158Z" fill="white"/>
<path d="M103.64 51.0518V50.7353C103.872 50.7299 104.032 50.6867 104.119 50.6055C104.211 50.519 104.257 50.3675 104.257 50.1512V48.2526C104.257 47.8956 104.186 47.6305 104.046 47.4574C103.91 47.2789 103.707 47.1897 103.437 47.1897C103.209 47.1897 102.998 47.2519 102.804 47.3763C102.614 47.4953 102.449 47.6738 102.308 47.9118L102.316 47.5548C102.452 47.306 102.644 47.1112 102.893 46.9706C103.142 46.83 103.418 46.7597 103.721 46.7597C104.143 46.7597 104.468 46.8922 104.695 47.1572C104.928 47.4223 105.044 47.8036 105.044 48.3012V50.1512C105.044 50.3675 105.109 50.519 105.239 50.6055C105.369 50.6867 105.607 50.7299 105.953 50.7353V51.0518C105.872 51.0464 105.758 51.0437 105.612 51.0437C105.472 51.0383 105.317 51.0328 105.15 51.0274C104.982 51.022 104.82 51.0193 104.663 51.0193C104.457 51.0193 104.257 51.0247 104.062 51.0355C103.872 51.041 103.732 51.0464 103.64 51.0518ZM100.66 51.0518V50.7353C101.001 50.7299 101.237 50.6867 101.367 50.6055C101.502 50.519 101.57 50.3675 101.57 50.1512V47.9037C101.57 47.644 101.502 47.4628 101.367 47.3601C101.231 47.2573 100.996 47.2005 100.66 47.1897V46.8732C100.769 46.8787 100.88 46.8841 100.993 46.8895C101.107 46.8949 101.226 46.8976 101.35 46.8976C101.534 46.8976 101.71 46.8895 101.878 46.8732C102.046 46.8516 102.206 46.8219 102.357 46.784V50.1512C102.357 50.3675 102.4 50.519 102.487 50.6055C102.579 50.6867 102.741 50.7299 102.974 50.7353V51.0518C102.85 51.0464 102.695 51.041 102.511 51.0355C102.333 51.0247 102.146 51.0193 101.951 51.0193C101.729 51.0193 101.499 51.0247 101.261 51.0355C101.023 51.041 100.823 51.0464 100.66 51.0518Z" fill="white"/>
<path d="M108.384 52.9909C107.848 52.9909 107.423 52.8936 107.109 52.6989C106.801 52.5095 106.647 52.2526 106.647 51.9281C106.647 51.6684 106.739 51.4385 106.923 51.2384C107.112 51.0437 107.388 50.8787 107.751 50.7435L107.978 50.8895C107.799 50.9652 107.656 51.0869 107.548 51.2546C107.44 51.4223 107.385 51.6062 107.385 51.8064C107.385 52.0822 107.486 52.2959 107.686 52.4473C107.886 52.6042 108.165 52.6826 108.522 52.6826C108.803 52.6826 109.052 52.6339 109.269 52.5366C109.491 52.4446 109.664 52.3148 109.788 52.1471C109.918 51.9794 109.983 51.7901 109.983 51.5792C109.983 51.379 109.921 51.2276 109.796 51.1248C109.677 51.0274 109.493 50.9788 109.244 50.9788H108.416C108.086 50.9788 107.824 50.9165 107.629 50.7921C107.434 50.6677 107.337 50.5 107.337 50.2891C107.337 50.1268 107.394 49.9781 107.507 49.8428C107.626 49.7022 107.799 49.5697 108.027 49.4453L108.303 49.4858C108.184 49.5562 108.097 49.6292 108.043 49.7049C107.989 49.7806 107.962 49.8618 107.962 49.9483C107.962 50.0511 108.005 50.1295 108.092 50.1836C108.178 50.2377 108.303 50.2648 108.465 50.2648H109.382C109.815 50.2648 110.143 50.354 110.365 50.5325C110.592 50.711 110.706 50.9706 110.706 51.3114C110.706 51.636 110.606 51.9254 110.405 52.1796C110.21 52.4338 109.937 52.6312 109.585 52.7719C109.239 52.9179 108.839 52.9909 108.384 52.9909ZM108.473 49.5264C107.981 49.5264 107.594 49.4047 107.312 49.1613C107.036 48.9125 106.898 48.5717 106.898 48.139C106.898 47.7062 107.036 47.3682 107.312 47.1248C107.594 46.8814 107.981 46.7597 108.473 46.7597C108.96 46.7597 109.342 46.8814 109.618 47.1248C109.899 47.3682 110.04 47.7062 110.04 48.139C110.04 48.5717 109.899 48.9125 109.618 49.1613C109.342 49.4047 108.96 49.5264 108.473 49.5264ZM108.473 49.2262C108.733 49.2262 108.925 49.137 109.05 48.9585C109.179 48.78 109.244 48.5068 109.244 48.139C109.244 47.7712 109.179 47.5007 109.05 47.3276C108.925 47.1491 108.733 47.0599 108.473 47.0599C108.213 47.0599 108.019 47.1491 107.889 47.3276C107.764 47.5007 107.702 47.7712 107.702 48.139C107.702 48.5068 107.764 48.78 107.889 48.9585C108.019 49.137 108.213 49.2262 108.473 49.2262ZM110.787 47.8388C110.679 47.8388 110.6 47.8063 110.551 47.7414C110.503 47.6711 110.465 47.5927 110.438 47.5061C110.411 47.4142 110.384 47.333 110.357 47.2627C110.33 47.1924 110.289 47.1572 110.235 47.1572C110.202 47.1572 110.154 47.1761 110.089 47.214C110.024 47.2465 109.959 47.2951 109.894 47.3601C109.829 47.4196 109.769 47.4926 109.715 47.5791L109.577 47.3682C109.691 47.1951 109.842 47.0517 110.032 46.9381C110.227 46.8191 110.419 46.7597 110.608 46.7597C110.781 46.7597 110.914 46.811 111.006 46.9138C111.103 47.0112 111.152 47.1518 111.152 47.3357C111.152 47.4926 111.117 47.617 111.047 47.7089C110.982 47.7955 110.895 47.8388 110.787 47.8388Z" fill="white"/>
<path d="M116.71 51.1654C116.402 51.1654 116.136 51.1329 115.914 51.068C115.698 51.0031 115.519 50.9382 115.379 50.8733C115.238 50.8084 115.127 50.7759 115.046 50.7759C114.976 50.7759 114.919 50.8057 114.875 50.8652C114.838 50.9247 114.808 51.0112 114.786 51.1248H114.461C114.472 51.0058 114.48 50.8598 114.486 50.6867C114.491 50.5136 114.494 50.2918 114.494 50.0213C114.499 49.7509 114.502 49.4128 114.502 49.0071H114.827C114.87 49.5751 115.049 50.024 115.362 50.354C115.676 50.6785 116.085 50.8408 116.588 50.8408C116.951 50.8408 117.24 50.7489 117.457 50.565C117.679 50.3756 117.79 50.1214 117.79 49.8023C117.79 49.6021 117.741 49.4263 117.644 49.2749C117.552 49.118 117.4 48.9747 117.189 48.8449C116.983 48.715 116.707 48.5879 116.361 48.4635C115.944 48.3121 115.603 48.1498 115.338 47.9767C115.078 47.8036 114.886 47.6116 114.762 47.4006C114.643 47.1843 114.583 46.9408 114.583 46.6704C114.583 46.3675 114.651 46.1051 114.786 45.8834C114.927 45.6616 115.124 45.4912 115.379 45.3722C115.633 45.2532 115.931 45.1937 116.272 45.1937C116.553 45.1937 116.789 45.2262 116.978 45.2911C117.167 45.3506 117.324 45.4128 117.449 45.4777C117.573 45.5426 117.679 45.5751 117.765 45.5751C117.83 45.5751 117.884 45.548 117.928 45.4939C117.971 45.4344 118.004 45.3479 118.025 45.2343H118.35C118.339 45.3533 118.331 45.4885 118.326 45.64C118.32 45.786 118.315 45.9699 118.309 46.1917C118.309 46.4135 118.309 46.6974 118.309 47.0436H117.976C117.933 46.5784 117.768 46.2079 117.481 45.9321C117.194 45.6508 116.835 45.5101 116.402 45.5101C116.061 45.5101 115.795 45.594 115.606 45.7617C115.422 45.9239 115.33 46.1484 115.33 46.4351C115.33 46.6244 115.379 46.7948 115.476 46.9463C115.574 47.0923 115.733 47.2329 115.955 47.3682C116.182 47.498 116.485 47.6332 116.864 47.7739C117.481 48.001 117.925 48.2553 118.196 48.5365C118.466 48.8178 118.602 49.164 118.602 49.5751C118.602 50.0619 118.431 50.4487 118.09 50.7353C117.749 51.022 117.289 51.1654 116.71 51.1654Z" fill="white"/>
<path d="M121.801 51.1654C121.411 51.1654 121.07 51.0788 120.778 50.9057C120.491 50.7272 120.269 50.473 120.112 50.143C119.956 49.8131 119.877 49.4236 119.877 48.9747C119.877 48.5203 119.956 48.1282 120.112 47.7982C120.269 47.4628 120.497 47.2059 120.794 47.0274C121.092 46.8489 121.447 46.7597 121.858 46.7597C122.21 46.7597 122.513 46.8273 122.767 46.9625C123.027 47.0977 123.224 47.3114 123.36 47.6035C123.5 47.8956 123.565 48.2769 123.555 48.7475H120.397L120.388 48.4392H122.743C122.748 48.1741 122.718 47.9388 122.653 47.7333C122.588 47.5277 122.486 47.3655 122.345 47.2465C122.21 47.1275 122.034 47.068 121.817 47.068C121.541 47.068 121.298 47.1843 121.087 47.4169C120.881 47.6494 120.759 48.0146 120.721 48.5122L120.729 48.5365C120.724 48.5906 120.721 48.6501 120.721 48.715C120.721 48.78 120.721 48.8476 120.721 48.9179C120.721 49.4912 120.832 49.9348 121.054 50.2485C121.276 50.5568 121.595 50.711 122.012 50.711C122.283 50.711 122.524 50.6461 122.735 50.5163C122.951 50.3811 123.13 50.1728 123.27 49.8915L123.555 50.0538C123.414 50.4054 123.189 50.6785 122.881 50.8733C122.578 51.068 122.218 51.1654 121.801 51.1654Z" fill="white"/>
<path d="M124.611 51.0518V50.7353C124.958 50.7299 125.196 50.6867 125.326 50.6055C125.455 50.519 125.52 50.3675 125.52 50.1512V47.9037C125.52 47.644 125.45 47.4628 125.309 47.3601C125.174 47.2573 124.941 47.2005 124.611 47.1897V46.8732C124.725 46.8787 124.838 46.8841 124.952 46.8895C125.066 46.8949 125.182 46.8976 125.301 46.8976C125.664 46.8976 125.999 46.8597 126.308 46.784V50.1106C126.308 50.3378 126.392 50.4973 126.559 50.5893C126.727 50.6813 127.019 50.7299 127.436 50.7353V51.0518C127.339 51.0464 127.206 51.0437 127.038 51.0437C126.871 51.0383 126.689 51.0328 126.495 51.0274C126.3 51.022 126.11 51.0193 125.926 51.0193C125.661 51.0193 125.407 51.0247 125.163 51.0355C124.92 51.041 124.736 51.0464 124.611 51.0518ZM127.842 48.1877C127.723 48.1877 127.628 48.1552 127.558 48.0903C127.488 48.02 127.452 47.9334 127.452 47.8307C127.452 47.7603 127.466 47.6981 127.493 47.644C127.52 47.5845 127.547 47.5304 127.574 47.4818C127.601 47.4277 127.615 47.3763 127.615 47.3276C127.615 47.2194 127.531 47.1653 127.363 47.1653C127.233 47.1653 127.095 47.1978 126.949 47.2627C126.803 47.3276 126.67 47.4169 126.551 47.5304C126.432 47.6386 126.34 47.763 126.275 47.9037L126.259 47.5629C126.405 47.3087 126.592 47.1112 126.819 46.9706C127.052 46.83 127.295 46.7597 127.55 46.7597C127.799 46.7597 127.999 46.8327 128.151 46.9787C128.302 47.1194 128.378 47.3087 128.378 47.5467C128.378 47.736 128.326 47.8902 128.224 48.0092C128.126 48.1282 127.999 48.1877 127.842 48.1877Z" fill="white"/>
<path d="M131.296 51.1248L129.802 47.7171C129.726 47.5386 129.621 47.4087 129.485 47.3276C129.35 47.2411 129.177 47.1951 128.966 47.1897V46.8732C129.128 46.8841 129.29 46.8922 129.453 46.8976C129.615 46.903 129.807 46.9057 130.029 46.9057C130.246 46.9057 130.443 46.903 130.622 46.8976C130.8 46.8922 130.976 46.8841 131.149 46.8732V47.1897C130.879 47.2005 130.708 47.2546 130.638 47.3519C130.573 47.4439 130.592 47.6035 130.695 47.8307L131.734 50.2161L131.612 50.2566L132.383 48.3256C132.481 48.0822 132.529 47.8793 132.529 47.7171C132.529 47.5494 132.478 47.4223 132.375 47.3357C132.278 47.2492 132.129 47.2005 131.929 47.1897V46.8732C132.08 46.8787 132.207 46.8841 132.31 46.8895C132.419 46.8895 132.519 46.8922 132.611 46.8976C132.708 46.8976 132.811 46.8976 132.919 46.8976C133.098 46.8976 133.26 46.8949 133.406 46.8895C133.552 46.8841 133.682 46.8787 133.796 46.8732V47.1897C133.569 47.2059 133.379 47.2816 133.228 47.4169C133.076 47.5521 132.938 47.7739 132.814 48.0822L131.596 51.1248H131.296Z" fill="white"/>
<path d="M134.48 51.0518V50.7353C134.816 50.7299 135.051 50.6867 135.187 50.6055C135.322 50.5244 135.39 50.3729 135.39 50.1512V47.9037C135.39 47.6549 135.322 47.4764 135.187 47.3682C135.057 47.26 134.821 47.2005 134.48 47.1897V46.8732C134.589 46.8787 134.7 46.8841 134.813 46.8895C134.932 46.8949 135.049 46.8976 135.162 46.8976C135.357 46.8976 135.539 46.8895 135.706 46.8732C135.874 46.8516 136.031 46.8219 136.177 46.784V50.1512C136.177 50.3729 136.242 50.5244 136.372 50.6055C136.507 50.6867 136.745 50.7299 137.086 50.7353V51.0518C137.005 51.0464 136.891 51.0437 136.745 51.0437C136.605 51.0383 136.45 51.0328 136.283 51.0274C136.115 51.022 135.947 51.0193 135.779 51.0193C135.536 51.0193 135.29 51.0247 135.041 51.0355C134.792 51.041 134.605 51.0464 134.48 51.0518ZM135.755 45.9158C135.603 45.9158 135.474 45.8644 135.365 45.7617C135.257 45.6535 135.203 45.521 135.203 45.3641C135.203 45.2126 135.257 45.0855 135.365 44.9828C135.474 44.8746 135.603 44.8205 135.755 44.8205C135.907 44.8205 136.036 44.8746 136.145 44.9828C136.253 45.0855 136.307 45.2126 136.307 45.3641C136.307 45.521 136.253 45.6535 136.145 45.7617C136.036 45.8644 135.907 45.9158 135.755 45.9158Z" fill="white"/>
<path d="M139.919 51.1654C139.53 51.1654 139.189 51.0788 138.896 50.9057C138.61 50.7272 138.388 50.4757 138.231 50.1512C138.079 49.8212 138.004 49.4317 138.004 48.9828C138.004 48.5284 138.085 48.1363 138.247 47.8063C138.409 47.4709 138.639 47.214 138.937 47.0355C139.235 46.8516 139.587 46.7597 139.992 46.7597C140.295 46.7597 140.563 46.8056 140.796 46.8976C141.029 46.9895 141.213 47.1166 141.348 47.2789C141.489 47.4358 141.559 47.617 141.559 47.8225C141.559 48.0064 141.502 48.1579 141.389 48.2769C141.28 48.3905 141.14 48.4473 140.967 48.4473C140.831 48.4473 140.72 48.4094 140.634 48.3337C140.553 48.258 140.512 48.1606 140.512 48.0416C140.512 47.9388 140.534 47.8496 140.577 47.7739C140.626 47.6981 140.672 47.6278 140.715 47.5629C140.764 47.498 140.788 47.4331 140.788 47.3682C140.788 47.2816 140.728 47.2113 140.609 47.1572C140.49 47.1031 140.336 47.0761 140.147 47.0761C139.725 47.0761 139.403 47.2329 139.181 47.5467C138.959 47.855 138.848 48.304 138.848 48.8935C138.848 49.4831 138.956 49.9348 139.173 50.2485C139.394 50.5568 139.714 50.711 140.13 50.711C140.396 50.711 140.628 50.6434 140.829 50.5082C141.034 50.3675 141.202 50.162 141.332 49.8915L141.624 50.0538C141.489 50.4054 141.272 50.6785 140.975 50.8733C140.677 51.068 140.325 51.1654 139.919 51.1654Z" fill="white"/>
<path d="M144.69 51.1654C144.3 51.1654 143.959 51.0788 143.667 50.9057C143.38 50.7272 143.159 50.473 143.002 50.143C142.845 49.8131 142.766 49.4236 142.766 48.9747C142.766 48.5203 142.845 48.1282 143.002 47.7982C143.159 47.4628 143.386 47.2059 143.683 47.0274C143.981 46.8489 144.336 46.7597 144.747 46.7597C145.099 46.7597 145.402 46.8273 145.656 46.9625C145.916 47.0977 146.113 47.3114 146.249 47.6035C146.389 47.8956 146.454 48.2769 146.444 48.7475H143.286L143.278 48.4392H145.632C145.637 48.1741 145.607 47.9388 145.542 47.7333C145.478 47.5277 145.375 47.3655 145.234 47.2465C145.099 47.1275 144.923 47.068 144.706 47.068C144.43 47.068 144.187 47.1843 143.976 47.4169C143.77 47.6494 143.648 48.0146 143.61 48.5122L143.619 48.5365C143.613 48.5906 143.61 48.6501 143.61 48.715C143.61 48.78 143.61 48.8476 143.61 48.9179C143.61 49.4912 143.721 49.9348 143.943 50.2485C144.165 50.5568 144.484 50.711 144.901 50.711C145.172 50.711 145.413 50.6461 145.624 50.5163C145.84 50.3811 146.019 50.1728 146.159 49.8915L146.444 50.0538C146.303 50.4054 146.078 50.6785 145.77 50.8733C145.467 51.068 145.107 51.1654 144.69 51.1654Z" fill="white"/>
<path d="M149.547 51.1654C149.315 51.1654 149.117 51.1383 148.955 51.0842C148.798 51.0355 148.668 50.9896 148.565 50.9463C148.462 50.8976 148.376 50.8733 148.305 50.8733C148.181 50.8733 148.089 50.9571 148.029 51.1248H147.721C147.731 50.995 147.74 50.8543 147.745 50.7029C147.75 50.5514 147.753 50.3783 147.753 50.1836C147.759 49.9835 147.759 49.7563 147.753 49.5021H148.062C148.137 49.951 148.289 50.2864 148.516 50.5082C148.749 50.7299 149.06 50.8408 149.45 50.8408C149.731 50.8408 149.95 50.7813 150.107 50.6623C150.264 50.5379 150.343 50.3648 150.343 50.143C150.343 49.9321 150.262 49.7617 150.099 49.6319C149.942 49.4967 149.666 49.375 149.271 49.2668C148.779 49.1315 148.419 48.9557 148.192 48.7394C147.964 48.5176 147.851 48.2417 147.851 47.9118C147.851 47.5602 147.967 47.2816 148.2 47.0761C148.432 46.8651 148.746 46.7597 149.141 46.7597C149.352 46.7597 149.531 46.784 149.677 46.8327C149.823 46.8814 149.945 46.93 150.042 46.9787C150.145 47.0274 150.237 47.0517 150.318 47.0517C150.373 47.0517 150.419 47.0328 150.456 46.9949C150.494 46.9571 150.527 46.8949 150.554 46.8083H150.87C150.86 46.9219 150.852 47.0436 150.846 47.1734C150.841 47.2979 150.835 47.4439 150.83 47.6116C150.83 47.7739 150.833 47.9713 150.838 48.2039H150.521C150.467 47.8523 150.324 47.5764 150.091 47.3763C149.858 47.1707 149.58 47.068 149.255 47.068C149.017 47.068 148.833 47.1248 148.703 47.2384C148.578 47.3465 148.516 47.5007 148.516 47.7008C148.516 47.9118 148.603 48.0876 148.776 48.2282C148.949 48.3634 149.25 48.4906 149.677 48.6096C150.148 48.7448 150.486 48.9125 150.692 49.1126C150.903 49.3127 151.008 49.5778 151.008 49.9077C151.008 50.2972 150.879 50.6055 150.619 50.8327C150.359 51.0545 150.002 51.1654 149.547 51.1654Z" fill="white"/>
<path d="M8.74417 32.1345C8.74417 34.5479 6.78672 36.5043 4.37208 36.5043C1.95745 36.5043 0 34.5479 0 32.1345C0 29.7212 1.95745 27.7648 4.37208 27.7648C6.78672 27.7648 8.74417 29.7212 8.74417 32.1345Z" fill="#017FC1"/>
<path d="M15.9408 32.1344C15.9408 33.731 14.6459 35.0252 13.0485 35.0252C11.4511 35.0252 10.1562 33.731 10.1562 32.1344C10.1562 30.5379 11.4511 29.2437 13.0485 29.2437C14.6459 29.2437 15.9408 30.5379 15.9408 32.1344Z" fill="#017FC1"/>
<path d="M21.0537 32.1679C21.0537 33.2632 20.1653 34.1511 19.0694 34.1511C17.9736 34.1511 17.0852 33.2632 17.0852 32.1679C17.0852 31.0727 17.9736 30.1847 19.0694 30.1847C20.1653 30.1847 21.0537 31.0727 21.0537 32.1679Z" fill="#017FC1"/>
<path d="M24.4833 32.1345C24.4833 32.8399 23.9112 33.4118 23.2054 33.4118C22.4995 33.4118 21.9274 32.8399 21.9274 32.1345C21.9274 31.4291 22.4995 30.8572 23.2054 30.8572C23.9112 30.8572 24.4833 31.4291 24.4833 32.1345Z" fill="#017FC1"/>
<path d="M27.2416 32.1343C27.2416 32.7283 26.7598 33.2099 26.1654 33.2099C25.571 33.2099 25.0892 32.7283 25.0892 32.1343C25.0892 31.5402 25.571 31.0586 26.1654 31.0586C26.7598 31.0586 27.2416 31.5402 27.2416 32.1343Z" fill="#017FC1"/>
<path d="M29.5964 32.1345C29.5964 32.6171 29.2049 33.0084 28.7219 33.0084C28.239 33.0084 27.8475 32.6171 27.8475 32.1345C27.8475 31.6518 28.239 31.2605 28.7219 31.2605C29.2049 31.2605 29.5964 31.6518 29.5964 32.1345Z" fill="#017FC1"/>
<path d="M31.2776 32.1346C31.2776 32.4316 31.0367 32.6724 30.7395 32.6724C30.4423 32.6724 30.2014 32.4316 30.2014 32.1346C30.2014 31.8376 30.4423 31.5968 30.7395 31.5968C31.0367 31.5968 31.2776 31.8376 31.2776 32.1346Z" fill="#017FC1"/>
<path d="M55.0893 32.1344C55.0893 29.721 57.0467 27.7646 59.4614 27.7646C61.876 27.7646 63.8335 29.721 63.8335 32.1344C63.8335 34.5477 61.876 36.5041 59.4614 36.5041C57.0467 36.5041 55.0893 34.5477 55.0893 32.1344Z" fill="#017FC1"/>
<path d="M47.8924 32.1342C47.8924 30.5377 49.1874 29.2435 50.7847 29.2435C52.3821 29.2435 53.677 30.5377 53.677 32.1342C53.677 33.7307 52.3821 35.025 50.7847 35.025C49.1874 35.025 47.8924 33.7307 47.8924 32.1342Z" fill="#017FC1"/>
<path d="M42.7799 32.1007C42.7799 31.0054 43.6683 30.1175 44.7641 30.1175C45.86 30.1175 46.7484 31.0054 46.7484 32.1007C46.7484 33.196 45.86 34.0839 44.7641 34.0839C43.6683 34.0839 42.7799 33.196 42.7799 32.1007Z" fill="#017FC1"/>
<path d="M39.35 32.1345C39.35 31.429 39.9222 30.8572 40.628 30.8572C41.3338 30.8572 41.906 31.429 41.906 32.1345C41.906 32.8399 41.3338 33.4118 40.628 33.4118C39.9222 33.4118 39.35 32.8399 39.35 32.1345Z" fill="#017FC1"/>
<path d="M36.5918 32.1345C36.5918 31.5405 37.0736 31.0589 37.668 31.0589C38.2624 31.0589 38.7442 31.5405 38.7442 32.1345C38.7442 32.7286 38.2624 33.2102 37.668 33.2102C37.0736 33.2102 36.5918 32.7286 36.5918 32.1345Z" fill="#017FC1"/>
<path d="M34.238 32.1343C34.238 31.6516 34.6295 31.2604 35.1124 31.2604C35.5953 31.2604 35.9868 31.6516 35.9868 32.1343C35.9868 32.617 35.5953 33.0083 35.1124 33.0083C34.6295 33.0083 34.238 32.617 34.238 32.1343Z" fill="#017FC1"/>
<path d="M32.5559 32.1346C32.5559 31.8376 32.7968 31.5968 33.094 31.5968C33.3911 31.5968 33.6321 31.8376 33.6321 32.1346C33.6321 32.4316 33.3911 32.6724 33.094 32.6724C32.7968 32.6724 32.5559 32.4316 32.5559 32.1346Z" fill="#017FC1"/>
<path d="M48.4188 48.5944C50.1262 46.8879 52.8944 46.8879 54.6018 48.5944C56.3092 50.3009 56.3092 53.0677 54.6018 54.7742C52.8944 56.4807 50.1262 56.4807 48.4188 54.7742C46.7114 53.0677 46.7114 50.3009 48.4188 48.5944Z" fill="#77C6EF"/>
<path d="M43.3291 43.5081C44.4586 42.3792 46.29 42.3792 47.4195 43.5081C48.549 44.637 48.549 46.4673 47.4195 47.5962C46.29 48.7251 44.4586 48.7251 43.3291 47.5962C42.1996 46.4673 42.1996 44.637 43.3291 43.5081Z" fill="#77C6EF"/>
<path d="M39.7387 39.8714C40.5136 39.0969 41.7699 39.0969 42.5448 39.8714C43.3197 40.6459 43.3197 41.9016 42.5448 42.676C41.7699 43.4505 40.5136 43.4505 39.7387 42.676C38.9638 41.9016 38.9638 40.6459 39.7387 39.8714Z" fill="#77C6EF"/>
<path d="M37.2886 37.4711C37.7877 36.9723 38.5969 36.9723 39.0959 37.4711C39.595 37.9699 39.595 38.7786 39.0959 39.2775C38.5969 39.7763 37.7877 39.7763 37.2886 39.2775C36.7895 38.7786 36.7895 37.9699 37.2886 37.4711Z" fill="#77C6EF"/>
<path d="M35.3392 35.522C35.7595 35.1019 36.4409 35.1019 36.8612 35.522C37.2815 35.942 37.2815 36.6231 36.8612 37.0432C36.4409 37.4632 35.7595 37.4632 35.3392 37.0432C34.9189 36.6231 34.9189 35.942 35.3392 35.522Z" fill="#77C6EF"/>
<path d="M33.6741 33.8583C34.0156 33.517 34.5693 33.517 34.9108 33.8583C35.2522 34.1996 35.2522 34.753 34.9108 35.0943C34.5693 35.4356 34.0156 35.4356 33.6741 35.0943C33.3327 34.753 33.3327 34.1996 33.6741 33.8583Z" fill="#77C6EF"/>
<path d="M32.4855 32.6695C32.6956 32.4595 33.0363 32.4595 33.2464 32.6695C33.4566 32.8796 33.4566 33.2201 33.2464 33.4301C33.0363 33.6402 32.6956 33.6402 32.4855 33.4301C32.2753 33.2201 32.2753 32.8796 32.4855 32.6695Z" fill="#77C6EF"/>
<path d="M15.4624 48.5944C17.1698 50.3009 17.1698 53.0677 15.4624 54.7742C13.755 56.4807 10.9868 56.4807 9.27937 54.7742C7.57197 53.0677 7.57197 50.3009 9.27937 48.5944C10.9868 46.8879 13.755 46.8879 15.4624 48.5944Z" fill="#77C6EF"/>
<path d="M20.5521 43.5081C21.6816 44.637 21.6816 46.4674 20.5521 47.5963C19.4226 48.7252 17.5913 48.7252 16.4618 47.5963C15.3323 46.4674 15.3323 44.637 16.4618 43.5081C17.5913 42.3792 19.4226 42.3792 20.5521 43.5081Z" fill="#77C6EF"/>
<path d="M24.1903 39.9191C24.9652 40.6936 24.9652 41.9493 24.1903 42.7238C23.4154 43.4983 22.1591 43.4983 21.3842 42.7238C20.6093 41.9493 20.6093 40.6936 21.3842 39.9191C22.1591 39.1446 23.4154 39.1446 24.1903 39.9191Z" fill="#77C6EF"/>
<path d="M26.5919 37.4709C27.091 37.9698 27.091 38.7785 26.5919 39.2773C26.0928 39.7762 25.2837 39.7762 24.7846 39.2773C24.2855 38.7785 24.2855 37.9698 24.7846 37.4709C25.2837 36.9721 26.0928 36.9721 26.5919 37.4709Z" fill="#77C6EF"/>
<path d="M28.5425 35.5217C28.9628 35.9418 28.9628 36.6228 28.5425 37.0429C28.1222 37.463 27.4408 37.463 27.0205 37.0429C26.6002 36.6228 26.6002 35.9418 27.0205 35.5217C27.4408 35.1017 28.1222 35.1017 28.5425 35.5217Z" fill="#77C6EF"/>
<path d="M30.2064 33.8583C30.5479 34.1996 30.5479 34.753 30.2064 35.0943C29.8649 35.4356 29.3113 35.4356 28.9698 35.0943C28.6283 34.753 28.6283 34.1996 28.9698 33.8583C29.3113 33.517 29.8649 33.517 30.2064 33.8583Z" fill="#77C6EF"/>
<path d="M31.3965 32.6699C31.6067 32.8799 31.6067 33.2205 31.3965 33.4305C31.1864 33.6405 30.8457 33.6405 30.6355 33.4305C30.4254 33.2205 30.4254 32.8799 30.6355 32.6699C30.8457 32.4599 31.1864 32.4599 31.3965 32.6699Z" fill="#77C6EF"/>
<path d="M15.5293 15.6561C13.8219 17.3626 11.0537 17.3626 9.34628 15.6561C7.63888 13.9496 7.63888 11.1829 9.34628 9.47636C11.0537 7.76987 13.8219 7.76987 15.5293 9.47636C17.2367 11.1829 17.2367 13.9496 15.5293 15.6561Z" fill="#77C6EF"/>
<path d="M20.618 20.7425C19.4885 21.8715 17.6572 21.8715 16.5277 20.7425C15.3982 19.6136 15.3982 17.7833 16.5277 16.6544C17.6572 15.5255 19.4885 15.5255 20.618 16.6544C21.7475 17.7833 21.7475 19.6136 20.618 20.7425Z" fill="#77C6EF"/>
<path d="M24.2094 24.3792C23.4345 25.1537 22.1781 25.1537 21.4032 24.3792C20.6283 23.6047 20.6283 22.349 21.4032 21.5745C22.1781 20.8 23.4345 20.8 24.2094 21.5745C24.9843 22.349 24.9843 23.6047 24.2094 24.3792Z" fill="#77C6EF"/>
<path d="M26.6586 26.7798C26.1595 27.2786 25.3503 27.2786 24.8512 26.7798C24.3521 26.2809 24.3521 25.4722 24.8512 24.9734C25.3503 24.4745 26.1595 24.4745 26.6586 24.9734C27.1577 25.4722 27.1577 26.2809 26.6586 26.7798Z" fill="#77C6EF"/>
<path d="M28.6087 28.7286C28.1885 29.1487 27.507 29.1487 27.0868 28.7286C26.6665 28.3086 26.6665 27.6275 27.0868 27.2075C27.507 26.7874 28.1885 26.7874 28.6087 27.2075C29.029 27.6275 29.029 28.3086 28.6087 28.7286Z" fill="#77C6EF"/>
<path d="M30.273 30.3925C29.9315 30.7338 29.3779 30.7338 29.0364 30.3925C28.6949 30.0512 28.6949 29.4979 29.0364 29.1566C29.3779 28.8153 29.9315 28.8153 30.273 29.1566C30.6145 29.4979 30.6145 30.0512 30.273 30.3925Z" fill="#77C6EF"/>
<path d="M31.4626 31.581C31.2525 31.791 30.9118 31.791 30.7016 31.581C30.4915 31.371 30.4915 31.0304 30.7016 30.8204C30.9118 30.6104 31.2525 30.6104 31.4626 30.8204C31.6728 31.0304 31.6728 31.371 31.4626 31.581Z" fill="#77C6EF"/>
<path d="M31.8816 8.7395C29.467 8.7395 27.5096 6.7831 27.5096 4.36975C27.5096 1.9564 29.467 -1.05491e-07 31.8816 0C34.2963 1.05491e-07 36.2537 1.9564 36.2537 4.36975C36.2537 6.7831 34.2963 8.7395 31.8816 8.7395Z" fill="#017FC1"/>
<path d="M31.882 15.9328C30.2846 15.9328 28.9897 14.6386 28.9897 13.0421C28.9897 11.4455 30.2846 10.1513 31.882 10.1513C33.4794 10.1513 34.7743 11.4455 34.7743 13.0421C34.7743 14.6386 33.4794 15.9328 31.882 15.9328Z" fill="#017FC1"/>
<path d="M31.8476 21.042C30.7517 21.042 29.8633 20.1541 29.8633 19.0588C29.8633 17.9635 30.7517 17.0756 31.8476 17.0756C32.9435 17.0756 33.8318 17.9635 33.8318 19.0588C33.8318 20.1541 32.9435 21.042 31.8476 21.042Z" fill="#017FC1"/>
<path d="M31.8814 24.4706C31.1756 24.4706 30.6034 23.8988 30.6034 23.1933C30.6034 22.4879 31.1756 21.916 31.8814 21.916C32.5873 21.916 33.1594 22.4879 33.1594 23.1933C33.1594 23.8988 32.5873 24.4706 31.8814 24.4706Z" fill="#017FC1"/>
<path d="M31.8814 27.2268C31.287 27.2268 30.8052 26.7452 30.8052 26.1512C30.8052 25.5571 31.287 25.0755 31.8814 25.0755C32.4758 25.0755 32.9576 25.5571 32.9576 26.1512C32.9576 26.7452 32.4758 27.2268 31.8814 27.2268Z" fill="#017FC1"/>
<path d="M31.8824 29.5799C31.3994 29.5799 31.0079 29.1886 31.0079 28.7059C31.0079 28.2233 31.3994 27.832 31.8824 27.832C32.3653 27.832 32.7568 28.2233 32.7568 28.7059C32.7568 29.1886 32.3653 29.5799 31.8824 29.5799Z" fill="#017FC1"/>
<path d="M31.8816 31.2604C31.5844 31.2604 31.3435 31.0196 31.3435 30.7226C31.3435 30.4255 31.5844 30.1848 31.8816 30.1848C32.1788 30.1848 32.4197 30.4255 32.4197 30.7226C32.4197 31.0196 32.1788 31.2604 31.8816 31.2604Z" fill="#017FC1"/>
<path d="M48.351 15.7232C46.6436 14.0167 46.6436 11.2499 48.351 9.54343C50.0584 7.83694 52.8266 7.83694 54.534 9.54343C56.2414 11.2499 56.2414 14.0167 54.534 15.7232C52.8266 17.4297 50.0584 17.4297 48.351 15.7232Z" fill="#77C6EF"/>
<path d="M43.2621 20.8095C42.1326 19.6805 42.1326 17.8502 43.2621 16.7213C44.3916 15.5924 46.2229 15.5924 47.3525 16.7213C48.482 17.8502 48.482 19.6805 47.3525 20.8095C46.2229 21.9384 44.3916 21.9384 43.2621 20.8095Z" fill="#77C6EF"/>
<path d="M39.623 24.3986C38.8481 23.6241 38.8481 22.3684 39.623 21.5939C40.3979 20.8194 41.6543 20.8194 42.4292 21.5939C43.2041 22.3684 43.2041 23.6241 42.4292 24.3986C41.6543 25.173 40.3979 25.173 39.623 24.3986Z" fill="#77C6EF"/>
<path d="M37.2214 26.8468C36.7223 26.348 36.7223 25.5392 37.2214 25.0404C37.7205 24.5416 38.5297 24.5416 39.0288 25.0404C39.5279 25.5392 39.5279 26.348 39.0288 26.8468C38.5297 27.3456 37.7205 27.3456 37.2214 26.8468Z" fill="#77C6EF"/>
<path d="M35.2717 28.7961C34.8515 28.376 34.8515 27.695 35.2717 27.2749C35.692 26.8548 36.3734 26.8548 36.7937 27.2749C37.214 27.695 37.214 28.376 36.7937 28.7961C36.3734 29.2161 35.692 29.2161 35.2717 28.7961Z" fill="#77C6EF"/>
<path d="M33.6071 30.4595C33.2656 30.1182 33.2656 29.5648 33.6071 29.2235C33.9485 28.8822 34.5022 28.8822 34.8437 29.2235C35.1852 29.5648 35.1852 30.1182 34.8437 30.4595C34.5022 30.8008 33.9485 30.8008 33.6071 30.4595Z" fill="#77C6EF"/>
<path d="M32.4177 31.6483C32.2076 31.4382 32.2076 31.0977 32.4177 30.8877C32.6278 30.6776 32.9686 30.6776 33.1787 30.8877C33.3888 31.0977 33.3888 31.4382 33.1787 31.6483C32.9686 31.8583 32.6278 31.8583 32.4177 31.6483Z" fill="#77C6EF"/>
<path d="M31.8823 55.2605C34.297 55.2605 36.2544 57.2169 36.2544 59.6302C36.2544 62.0436 34.297 64 31.8823 64C29.4677 64 27.5103 62.0436 27.5103 59.6302C27.5103 57.2169 29.4677 55.2605 31.8823 55.2605Z" fill="#017FC1"/>
<path d="M31.8822 48.0673C33.4795 48.0673 34.7745 49.3615 34.7745 50.9581C34.7745 52.5546 33.4795 53.8488 31.8822 53.8488C30.2848 53.8488 28.9899 52.5546 28.9899 50.9581C28.9899 49.3615 30.2848 48.0673 31.8822 48.0673Z" fill="#017FC1"/>
<path d="M31.9157 42.9581C33.0116 42.9581 33.8999 43.846 33.8999 44.9413C33.8999 46.0366 33.0116 46.9245 31.9157 46.9245C30.8198 46.9245 29.9314 46.0366 29.9314 44.9413C29.9314 43.846 30.8198 42.9581 31.9157 42.9581Z" fill="#017FC1"/>
<path d="M31.8818 39.5293C32.5877 39.5293 33.1598 40.1012 33.1598 40.8066C33.1598 41.512 32.5877 42.0839 31.8818 42.0839C31.176 42.0839 30.6038 41.512 30.6038 40.8066C30.6038 40.1012 31.176 39.5293 31.8818 39.5293Z" fill="#017FC1"/>
<path d="M31.8819 36.7732C32.4762 36.7732 32.9581 37.2547 32.9581 37.8488C32.9581 38.4428 32.4762 38.9244 31.8819 38.9244C31.2875 38.9244 30.8057 38.4428 30.8057 37.8488C30.8057 37.2547 31.2875 36.7732 31.8819 36.7732Z" fill="#017FC1"/>
<path d="M31.8819 34.4201C32.3648 34.4201 32.7563 34.8114 32.7563 35.2941C32.7563 35.7767 32.3648 36.168 31.8819 36.168C31.399 36.168 31.0075 35.7767 31.0075 35.2941C31.0075 34.8114 31.399 34.4201 31.8819 34.4201Z" fill="#017FC1"/>
<path d="M31.8827 32.7396C32.1799 32.7396 32.4208 32.9804 32.4208 33.2774C32.4208 33.5745 32.1799 33.8152 31.8827 33.8152C31.5855 33.8152 31.3446 33.5745 31.3446 33.2774C31.3446 32.9804 31.5855 32.7396 31.8827 32.7396Z" fill="#017FC1"/>
</svg>
