<?xml version="1.0" encoding="UTF-8"?> <svg xmlns="http://www.w3.org/2000/svg" width="40" height="41" viewBox="0 0 40 41" fill="none"><path d="M17.5784 28.5C16.7608 29.4559 15.7158 30.1909 14.5397 30.6371C13.3636 31.0834 12.0942 31.2267 10.8482 31.0538C9.60218 30.881 8.41969 30.3975 7.40952 29.6478C6.39935 28.8982 5.59395 27.9066 5.06745 26.7641C4.54095 25.6217 4.31025 24.3652 4.3966 23.1102C4.48294 21.8553 4.88355 20.6422 5.56155 19.5826C6.23955 18.523 7.17317 17.651 8.27649 17.0468C9.3798 16.4426 10.6174 16.1256 11.8753 16.125C12.4643 16.1281 13.0512 16.1962 13.6253 16.3281V16.3281C12.8841 15.1433 12.494 13.7726 12.5003 12.375C12.5003 10.3859 13.2905 8.47822 14.697 7.0717C16.1035 5.66518 18.0112 4.875 20.0003 4.875C21.9894 4.875 23.8971 5.66518 25.3036 7.0717C26.7101 8.47822 27.5003 10.3859 27.5003 12.375C27.5066 13.7726 27.1165 15.1433 26.3753 16.3281V16.3281C26.9494 16.1962 27.5363 16.1281 28.1253 16.125C29.3832 16.1256 30.6208 16.4426 31.7241 17.0468C32.8274 17.651 33.761 18.523 34.439 19.5826C35.117 20.6422 35.5176 21.8553 35.604 23.1102C35.6903 24.3652 35.4596 25.6217 34.9331 26.7641C34.4066 27.9066 33.6012 28.8982 32.5911 29.6478C31.5809 30.3975 30.3984 30.881 29.1524 31.0538C27.9064 31.2267 26.637 31.0834 25.4609 30.6371C24.2848 30.1909 23.2398 29.4559 22.4222 28.5L25.0003 36.75H15.0003L17.5784 28.5Z" stroke="white" stroke-width="2" stroke-linecap="round" stroke-linejoin="round"></path></svg> 