<?xml version="1.0" encoding="UTF-8"?> <svg xmlns="http://www.w3.org/2000/svg" width="40" height="41" viewBox="0 0 40 41" fill="none"><path d="M33.75 34.25V18.5469C33.7472 18.3739 33.7098 18.2032 33.64 18.0449C33.5703 17.8866 33.4695 17.7438 33.3437 17.625L20.8437 6.26562C20.6133 6.05481 20.3123 5.9379 20 5.9379C19.6877 5.9379 19.3867 6.05481 19.1562 6.26562L6.65625 17.625C6.53047 17.7438 6.42972 17.8866 6.35995 18.0449C6.29018 18.2032 6.2528 18.3739 6.25 18.5469V34.25" stroke="white" stroke-width="2" stroke-linecap="round" stroke-linejoin="round"></path><path d="M2.5 34.25H37.5" stroke="white" stroke-width="2" stroke-linecap="round" stroke-linejoin="round"></path><path d="M23.75 34.25V25.5C23.75 25.1685 23.6183 24.8505 23.3839 24.6161C23.1495 24.3817 22.8315 24.25 22.5 24.25H17.5C17.1685 24.25 16.8505 24.3817 16.6161 24.6161C16.3817 24.8505 16.25 25.1685 16.25 25.5V34.25" stroke="white" stroke-width="2" stroke-linecap="round" stroke-linejoin="round"></path></svg> 